<svg width="70" height="70" viewBox="0 0 70 70" fill="none" xmlns="http://www.w3.org/2000/svg">
<path fill-rule="evenodd" clip-rule="evenodd" d="M63.9436 30.8202C63.5281 33.6981 62.5436 36.4335 61.0847 38.9489C61.194 39.5716 61.2501 40.2011 61.2501 40.8333C61.2501 43.0291 60.6139 45.1305 59.4354 47.0397C58.8471 47.9927 58.6958 49.1094 58.6375 49.8472C58.5708 50.6928 58.5933 51.618 58.6536 52.5068C58.7213 53.5039 58.8439 54.5508 58.9842 55.5384C57.8459 55.2064 56.612 54.873 55.4344 54.6073C54.4549 54.3864 53.4528 54.198 52.5449 54.1043C51.7531 54.0225 50.6088 53.9591 49.5855 54.29C47.3482 55.0132 44.8863 55.4167 42.2917 55.4167C39.2062 55.4167 36.3723 54.8689 33.8884 53.9175C33.2909 53.9446 32.6891 53.9583 32.0833 53.9583C28.5699 53.9583 25.1883 53.4963 22.0245 52.6423C26.624 57.9619 34.2064 61.25 42.2917 61.25C45.4503 61.25 48.4819 60.765 51.2757 59.8739C51.2805 59.8741 51.2894 59.8739 51.3027 59.8737C51.3745 59.8722 51.5736 59.8683 51.9456 59.9067C52.5307 59.9672 53.283 60.1019 54.1507 60.2977C55.8785 60.6874 57.8199 61.2626 59.3331 61.7429C62.5418 62.7614 65.6508 59.9613 65.0774 56.7052C64.8306 55.3037 64.5742 53.5932 64.4735 52.1115C64.4229 51.3665 64.4174 50.7549 64.4528 50.3062C64.4675 50.1202 64.4863 50.0036 64.4982 49.9416C66.1391 47.2233 67.0834 44.1284 67.0834 40.8333C67.0834 37.1188 65.9297 33.7268 63.9436 30.8202Z" fill="white"/>
<path fill-rule="evenodd" clip-rule="evenodd" d="M16.3247 16.6197C12.3931 19.6261 10.2083 23.5728 10.2083 27.7083C10.2083 29.7705 10.7452 31.7567 11.7523 33.6036C12.136 34.3071 12.2448 35.0327 12.2837 35.5239C12.3261 36.0596 12.305 36.6101 12.2584 37.1249C12.1651 38.1555 11.9427 39.3233 11.6758 40.4735C11.3637 41.819 10.9637 43.2538 10.5578 44.6011C12.0986 44.0411 13.7826 43.4672 15.379 43.0015C16.6692 42.6251 17.9722 42.2984 19.1319 42.1151C20.1309 41.9571 21.5805 41.8018 22.8286 42.2336C25.6296 43.2027 28.7629 43.75 32.0833 43.75C38.3459 43.75 43.9077 41.8056 47.8419 38.797C51.7735 35.7906 53.9583 31.8439 53.9583 27.7083C53.9583 23.5728 51.7735 19.6261 47.8419 16.6197C43.9077 13.6111 38.3459 11.6667 32.0833 11.6667C25.8207 11.6667 20.2589 13.6111 16.3247 16.6197ZM12.7812 11.9859C17.8198 8.13286 24.6538 5.83334 32.0833 5.83334C39.5128 5.83334 46.3468 8.13286 51.3854 11.9859C56.4267 15.841 59.7916 21.3735 59.7916 27.7083C59.7916 34.0432 56.4267 39.5757 51.3854 43.4308C46.3468 47.2838 39.5128 49.5833 32.0833 49.5833C28.1661 49.5833 24.4243 48.9448 21.027 47.7827C21.0236 47.7922 20.7481 47.7653 20.0429 47.8768C19.2302 48.0053 18.1928 48.2571 17.0127 48.6014C14.6634 49.2867 12.0252 50.2564 10.0156 51.0385C6.53421 52.3933 2.98768 49.0498 4.16065 45.4882C4.78233 43.6005 5.51554 41.215 5.99341 39.1552C6.23413 38.1176 6.39035 37.2452 6.44881 36.5992C6.4691 36.3749 6.47434 36.2115 6.47317 36.101C5.13068 33.5356 4.37498 30.6986 4.37498 27.7083C4.37498 21.3735 7.73995 15.841 12.7812 11.9859ZM6.46356 35.9419C6.46385 35.9416 6.46526 35.9494 6.46697 35.9663C6.46413 35.9507 6.46328 35.9422 6.46356 35.9419Z" fill="white"/>
</svg>
